<svg xmlns="http://www.w3.org/2000/svg" style="display: none;">
  <symbol id="icon-facebook" viewBox="0 0 20 20">
    <path d="M12.2 2.9001C12.35 2.9001 12.5 2.9001 12.8 2.9001V5.1501C12.65 5.1501 12.35 5.1501 12.05 5.1501C11.75 5.1501 11.45 5.1501 11.3 5.3001C11.15 5.4501 11.15 5.6001 11.15 5.9501C11.15 6.2501 11.15 6.4501 11.15 6.7501H12.8V8.6501H11.15V16.9001H8.60001V8.6001H7.25V6.7001H8.60001V6.0501C8.60001 4.9501 8.75 4.1501 9.05 3.8001C9.5 3.1501 10.4 2.8501 11.75 2.8501C11.9 2.9001 12.05 2.9001 12.2 2.9001Z" />
  </symbol>

  <symbol id="icon-instagram" viewBox="0 0 20 20">
    <path d="M17.9485 6.72248C17.9387 6.051 17.8143 5.38485 17.5762 4.75685C17.1595 3.68444 16.311 2.83646 15.2368 2.42133C14.6157 2.18805 13.9591 2.06298 13.2945 2.04879C12.4398 2.01064 12.1688 2 9.99911 2C7.82941 2 7.55131 2 6.7028 2.04879C6.03909 2.06298 5.3825 2.18805 4.76144 2.42133C3.68725 2.83646 2.83785 3.68444 2.42203 4.75685C2.18836 5.37687 2.06219 6.03238 2.04976 6.69498C2.01155 7.54917 2 7.81972 2 9.98581C2 12.1519 2 12.4287 2.04976 13.2766C2.06308 13.9401 2.18836 14.5947 2.42203 15.2165C2.83874 16.2881 3.68725 17.136 4.76233 17.5512C5.38072 17.7924 6.03732 17.929 6.70369 17.9503C7.55931 17.9885 7.8303 18 10 18C12.1697 18 12.4478 18 13.2963 17.9503C13.96 17.937 14.6166 17.812 15.2386 17.5787C16.3127 17.1627 17.1613 16.3147 17.578 15.2432C17.8116 14.6222 17.9369 13.9676 17.9502 13.3033C17.9884 12.4499 18 12.1794 18 10.0124C17.9982 7.84633 17.9982 7.57135 17.9485 6.72248ZM9.99378 14.0821C7.72457 14.0821 5.88627 12.2468 5.88627 9.98137C5.88627 7.71593 7.72457 5.8807 9.99378 5.8807C12.2612 5.8807 14.1013 7.71593 14.1013 9.98137C14.1013 12.2468 12.2612 14.0821 9.99378 14.0821ZM14.2648 6.68522C13.7343 6.68522 13.307 6.25768 13.307 5.72902C13.307 5.20036 13.7343 4.77281 14.2648 4.77281C14.7934 4.77281 15.2217 5.20036 15.2217 5.72902C15.2217 6.25768 14.7934 6.68522 14.2648 6.68522Z"  />
    <path d="M9.99518 12.485C11.3773 12.485 12.4977 11.3646 12.4977 9.98248C12.4977 8.60039 11.3773 7.47998 9.99518 7.47998C8.61308 7.47998 7.49268 8.60039 7.49268 9.98248C7.49268 11.3646 8.61308 12.485 9.99518 12.485Z"  />
  </symbol>

  <symbol id="icon-youtube" viewBox="0 0 18 13">
    <path fill-rule="evenodd" clip-rule="evenodd" d="M14 0.0999999C13.15 0.0499999 11.4 0 8.75 0H8.39999C5.84999 0 4.15002 0.0499999 3.30002 0.15C2.15002 0.25 1.34999 0.55 0.899994 0.95C0.499994 1.3 0.200006 1.95 0.100006 2.8C0.0500061 3.35 0 4.5 0 6.25V6.5C0 8.15 0.0499939 9.3 0.149994 9.85C0.299994 10.65 0.550018 11.25 1.05002 11.6C1.55002 12 2.40001 12.25 3.60001 12.35C4.45001 12.4 6.20001 12.45 8.85001 12.45H9.20001C11.75 12.45 13.45 12.4 14.3 12.3C15.45 12.2 16.25 11.9 16.7 11.5C17.1 11.15 17.4 10.5 17.5 9.65C17.55 9.1 17.6 7.95 17.6 6.2V5.95C17.6 4.3 17.55 3.15 17.45 2.6C17.3 1.8 17.05 1.2 16.55 0.85C16.05 0.45 15.2 0.2 14 0.0999999ZM12.05 6.25L6.55002 9.55V2.95L12.05 6.25Z"  />
  </symbol>
</svg>